# xmcd
#
# Track frame offsets: 
#        150
#        19585
#        23760
#        44604
#        47476
#        60076
#        80911
#        82902
#        107747
#        129446
#        133264
#        164898
#        166861
#        195583
#        196140
#        213251
#        231798
#        247692
#
# Disc length: 3520 seconds
#
# Revision: 0
# Processed by: cddbd v1.5.2PL0 Copyright (c) Steve Scherf et al.
# Submitted via: ExactAudioCopy v0.99pb5
#
DISCID=e50dbe12
DTITLE=Los Agentos - Poza Horyzont
DYEAR=2011
DGENRE=Blues
TTITLE0=01.Znak
TTITLE1=02.Chronos 1
TTITLE2=03.Przestroga
TTITLE3=04.Chronos 2
TTITLE4=05.I`m gonna leave you
TTITLE5=06.Four women
TTITLE6=07.Chronos 3
TTITLE7=08.Pomiedzy
TTITLE8=09.Zludzenia
TTITLE9=10.Chronos 4
TTITLE10=11.Nocny lowca
TTITLE11=12.Chronos 5
TTITLE12=13.4:40
TTITLE13=14.Chronos 6
TTITLE14=15.Afirmacja
TTITLE15=16.Cinema swing
TTITLE16=17.To jesien,to jesien
TTITLE17=18.4:40
EXTD=
EXTT0=
EXTT1=
EXTT2=
EXTT3=
EXTT4=
EXTT5=
EXTT6=
EXTT7=
EXTT8=
EXTT9=
EXTT10=
EXTT11=
EXTT12=
EXTT13=
EXTT14=
EXTT15=
EXTT16=
EXTT17=
PLAYORDER=
